<?xml version="1.0" encoding="utf-8"?>
<!-- Svg Vector Icons : http://www.onlinewebfonts.com/icon -->
<!DOCTYPE svg PUBLIC "-//W3C//DTD SVG 1.1//EN" "http://www.w3.org/Graphics/SVG/1.1/DTD/svg11.dtd">
<svg version="1.1" xmlns="http://www.w3.org/2000/svg" xmlns:xlink="http://www.w3.org/1999/xlink" x="0px" y="0px" viewBox="0 0 1000 1000" enable-background="new 0 0 1000 1000" xml:space="preserve">
<metadata> Svg Vector Icons : http://www.onlinewebfonts.com/icon </metadata>
<g><path d="M505.5,560.4c145,0,262.5-117.5,262.5-262.5c0-145-117.5-262.5-262.5-262.5c-145,0-262.5,117.5-262.5,262.5C243,442.9,360.5,560.4,505.5,560.4z M505.5,64.3c129,0,233.6,104.6,233.6,233.6c0,129-104.6,233.6-233.6,233.6c-129,0-233.6-104.6-233.6-233.6C271.9,168.9,376.5,64.3,505.5,64.3z"/><path d="M396.9,769.8c22.4,5.9,47.4,10.6,69.2,10.6h157.4c0.8,0,76.3-2.1,76.3-48.9c0-47-39.1-49-127.5-49c-57.1,0-116.3-32.5-122.2-35.9c-6.8-4.9-65.6-47.8-84.9-59.9c-2.2-1.4-4.5-2.8-6.7-4.2c-30.3-19.1-59-37.1-100.1-37.1c-21.6,0-44.8,5-71,15.3c-51.9,20.5-161.9,71.6-166.6,73.8l-10.8,5l115.6,256.6l65.2-42.4c15.9-10.1,25.4-13.8,35.2-13.8c9.5,0,21,3.7,37.1,12c9.1,4.7,22.9,11.8,38.9,20.1c50.3,26,119.1,61.6,140.8,72.1c28.2,13.7,53.3,20.3,76.8,20.3c0,0,0,0,0,0c36.6,0,62.8-16.4,85.9-31c5.5-3.4,10.6-6.7,15.9-9.7c36.9-21.3,292.5-190.6,319.2-209.4c30.5-21.5,46.1-40.7,49-60.6c1.9-12.8-1.6-25.2-10.6-36.8c-8.5-11.1-24.4-24.3-51.9-24.3c-17.3,0-36.9,5.4-58.6,16c-1.5-6.1-4.3-11.8-8.3-16.8c-9.9-12.4-26.2-19.5-44.7-19.5c-26.8,0-50.4,7.6-69.1,22.1C731.8,579.3,716.2,572,698,572c-20.7,0-45.1,9.6-81.4,32.2c-24.6,15.2-44.2,27-58.3,34.9c-3.9,2.2-7,3.9-10.3,5.6l-29.5,15.7l32.8,6.7c6,1.2,21,2.6,21,2.6s44.2-37.1,57-45c31.8-19.7,53-28.6,68.7-28.6c13.9,0,25.1,6.9,37.4,23.1l8.4,11.1l9.8-9.9c15.5-15.7,36.3-23.7,61.8-23.7c11,0,20.6,3.9,25.9,10.4c4.1,5.1,5.3,11.5,3.6,19.1l-6,27.2l24-14.2c25.1-14.8,46.7-22.4,64.2-22.4c14.1,0,25.2,5,32.7,14.9c4.9,6.4,6.8,12.3,5.9,18.5c-1.9,12.5-15,27.5-39.1,44.5C899.9,713.6,645.8,882,609.2,903c-5.7,3.3-11.2,6.8-16.6,10.2c-22.3,14-43.5,27.3-73.1,27.3c-19.7,0-41.4-5.9-66.2-17.9c-21.3-10.3-92.9-47.3-140.2-71.8c-16-8.3-29.8-15.4-38.9-20.1c-20-10.3-34.4-14.7-48.2-14.7c-17,0-31.5,7-48.2,17.7l-41.7,27.1L41.8,651.6c29.6-13.7,112.6-51.7,154.4-68.2c23.3-9.2,43.7-13.6,62.2-13.6c34.2,0,58.8,15.5,87.2,33.4c2.2,1.4,4.5,2.8,6.7,4.2c19.3,12.1,83.4,58.8,84,59.3l1,0.7c2.8,1.6,68.3,39.4,134.9,39.4c103.3,0,103.3,7.8,103.3,24.9c0,18.8-41,24.3-52.3,24.8H466.2c-50.4,0-123.3-29.6-124-29.9l-51.4-21l38,40.5c0.7,0.7,5.3,5.6,13,12.5"/><path d="M520.3,443v34.7h-21.4V443c-52.6-3.6-83.7-32.1-93.5-85.5l36.1-10.7c4.4,40.1,23.6,61.9,57.5,65.5v-97.5c-58.8-10.7-87.3-36.5-85.5-77.5c3.5-45.4,32.1-69.9,85.5-73.5V133h21.4v30.7c44.5,4.5,71.3,28.5,80.2,72.1l-34.7,10.7c-6.2-28.5-21.4-45-45.4-49.4v89.5c61.5,15.2,90.9,41.4,88.2,78.8C605.8,414.5,576.4,440.3,520.3,443z M498.9,281.3v-85.5c-29.4,3.6-45,17.8-46.8,42.8C451.3,260,466.9,274.2,498.9,281.3z M520.3,321.4v92.2c31.2-2.7,47.2-18.2,48.1-46.8C569.3,344.6,553.3,329.4,520.3,321.4z"/></g>
</svg>