<svg xmlns="http://www.w3.org/2000/svg" version="1.1" xmlns:xlink="http://www.w3.org/1999/xlink" xmlns:svgjs="http://svgjs.dev/svgjs" width="100%" height="100%" viewBox="0 0 1000 600"><rect width="1000" height="600" x="0" y="0" fill="#ffffff"/><g><circle r="166.66666666666666" cx="421.0298411051433" cy="443.25204595881826" fill="#8aaae5" transform="matrix(0.4914233272030726,0,0,0.4914233272030726,0,82.17559215693717)"/><path d="M427.374509630272 518.2520519486789L416.59461944019665 518.2520519486789L416.59461944019665 503.99165909633706Q403.37354335505944 503.12153343077046 394.23722386661 497.46571660458744Q385.10090437816046 491.80989977840443 378.6474723585414 483.2778342243762L378.6474723585414 483.2778342243762L388.91978924370284 474.06900426379616Q394.50309559775536 481.537582893243 401.1982291911429 485.9848918505835Q407.8933627845305 490.4080306505471 416.76381054183463 491.6407086767665L416.76381054183463 491.6407086767665L416.76381054183463 446.9017473722163Q398.85372392558844 442.9136714050359 390.58753010270556 435.1550508870669Q382.3213362798227 427.4206005264748 382.3213362798227 413.83697208068486L382.3213362798227 413.83697208068486Q382.3213362798227 406.8759667561519 384.8350326470151 401.4135111889837Q387.3487290142076 395.9268854644386 391.8927186010555 391.9146393398815Q396.4125380305265 387.9265633727011 402.6726087911308 385.5578879497698Q408.932679551735 383.2133826842153 416.59461944019665 382.5124481202866L416.59461944019665 382.5124481202866L416.59461944019665 368.25205526794485L427.374509630272 368.25205526794485L427.374509630272 382.34325701864867Q439.2178867449287 383.38257378585325 447.8224627710875 388.3616262054844Q456.45120895462304 393.31650846773874 462.71127971522736 402.01776512340496L462.71127971522736 402.01776512340496L452.10058062679 410.01808721514243Q447.7499522989569 403.92720755617614 441.6590726399906 400.01164206112634Q435.5681929810243 396.0960765660766 427.205318528634 394.88756869723403L427.205318528634 394.88756869723403L427.205318528634 435.59011371985025L428.7763787581293 435.95266608050304Q446.8798266333903 439.94074204768333 455.14602045627316 447.69936256565234Q463.412214279156 455.43381292624446 463.412214279156 469.1866324736724L463.412214279156 469.1866324736724Q463.412214279156 484.14795988994285 453.74415132841585 493.2842793783923Q444.1002585350525 502.42059886684183 427.374509630272 503.99165909633706L427.374509630272 503.99165909633706L427.374509630272 518.2520519486789ZM449.6593947317281 470.05675813923904L449.6593947317281 470.05675813923904Q449.6593947317281 461.1863103819349 444.5353213678358 456.4731296934491Q439.3870778465667 451.78411916234006 427.205318528634 448.8353599623643L427.205318528634 448.8353599623643L427.205318528634 491.6407086767665Q437.6468265154334 490.23883954890914 443.66519570226916 484.5830227227261Q449.6593947317281 478.9272058965431 449.6593947317281 470.05675813923904ZM396.04998566987376 412.7976553134803L396.04998566987376 412.7976553134803Q396.04998566987376 421.66810307078435 401.1982291911429 426.11541202812487Q406.3223025550352 430.5627209854654 416.76381054183463 433.34228908380317L416.76381054183463 433.34228908380317L416.76381054183463 394.88756869723403Q407.3616193222398 396.0960765660766 401.7058024960568 400.6158959955476Q396.04998566987376 405.13571542501865 396.04998566987376 412.7976553134803Z " fill="#ffffff" transform="matrix(0.4914233272030726,0,0,0.4914233272030726,0,82.17559215693717)"/><path d="M671.0298462430184 515.869346244818L671.0298462430184 376.61925232181255L728.2703345130002 376.61925232181255Q745.6142578707005 376.61925232181255 755.5052812552036 386.3994519148927Q765.3685986918512 396.1796515079729 765.3685986918512 412.5261607428661L765.3685986918512 412.5261607428661Q765.3685986918512 420.3115320903322 763.1798288112467 425.71419192220367Q760.9910589306425 431.0891458062194 757.583227344385 434.58009523604403Q754.2031017059834 438.0710446658687 750.2134452147552 439.7611074850695Q746.223788723527 441.45117030427036 742.8436630851254 442.06070115709684L742.8436630851254 442.06070115709684L742.8436630851254 443.2520569148942Q746.6116719935075 443.4459985498844 751.3216831289852 445.2468851605082Q756.0039883166072 447.04777177113203 760.1875864428256 450.92660447093726Q764.371184569044 454.8331431185982 767.2803090938979 460.90074569900764Q770.1617276708961 466.9960542272729 770.1617276708961 475.5848980625558L770.1617276708961 475.5848980625558Q770.1617276708961 484.1460359499829 767.4742507288881 491.54352402746844Q764.7867737868803 498.9133061570983 759.9936448078354 504.288260041114Q755.2005158287903 509.6909198729855 748.6065002391216 512.7662800849739Q742.0401905973087 515.869346244818 734.2548192498425 515.869346244818L734.2548192498425 515.869346244818L671.0298462430184 515.869346244818ZM687.764238747892 451.2313698973505L687.764238747892 501.1020760377026L729.073807000817 501.1020760377026Q739.8514207167042 501.1020760377026 746.0298470885367 495.6162983622639Q752.2082734603692 490.13052068682515 752.2082734603692 479.57455455378397L752.2082734603692 479.57455455378397L752.2082734603692 472.7865973291249Q752.2082734603692 462.2029252482279 746.0298470885367 456.71714757278926Q739.8514207167042 451.2313698973505 729.073807000817 451.2313698973505L729.073807000817 451.2313698973505L687.764238747892 451.2313698973505ZM687.764238747892 391.38652252892797L687.764238747892 436.8796889080714L726.2755062673862 436.8796889080714Q736.2496474954565 436.8796889080714 741.8462489623183 431.8926182940362Q747.4151444813243 426.90554768000095 747.4151444813243 417.5132313569013L747.4151444813243 417.5132313569013L747.4151444813243 410.75298008009804Q747.4151444813243 401.3606637569984 741.8462489623183 396.37359314296316Q736.2496474954565 391.38652252892797 726.2755062673862 391.38652252892797L726.2755062673862 391.38652252892797L687.764238747892 391.38652252892797ZM883.4790544009184 515.869346244818L874.5023272956549 515.869346244818Q865.5256001903916 515.869346244818 861.6190615427306 511.07621726577304Q857.7402288429255 506.2830882867281 856.7428147201184 499.1072477920885L856.7428147201184 499.1072477920885L855.7454005973115 499.1072477920885Q852.337569011054 508.6935057501784 844.5799036114437 513.4866347292234Q836.7945322639777 518.2520577604125 826.0169185480904 518.2520577604125L826.0169185480904 518.2520577604125Q809.6704093131972 518.2520577604125 800.5828584165108 509.88486150797576Q791.4953075198245 501.5176652555389 791.4953075198245 487.138278318404L791.4953075198245 487.138278318404Q791.4953075198245 472.59265569413463 802.1898033921444 464.80728434666855Q812.8565933166086 457.0219129992025 835.3815289233343 457.0219129992025L835.3815289233343 457.0219129992025L855.7454005973115 457.0219129992025L855.7454005973115 446.8538301361418Q855.7454005973115 435.88227478526437 849.7609158604691 430.0917316834124Q843.7764311236268 424.3011885815604 831.3918724321062 424.3011885815604L831.3918724321062 424.3011885815604Q822.0272620568622 424.3011885815604 815.7380118936068 428.48478670777877Q809.4487617303512 432.69609078185294 805.2651636041328 439.6779896415022L805.2651636041328 439.6779896415022L795.7066115938986 430.70126253623886Q799.890209720117 422.30636033594624 809.0608784603706 416.43269939052703Q818.2315472006243 410.53133249725204 832.195344919923 410.53133249725204L832.195344919923 410.53133249725204Q850.9522716182665 410.53133249725204 861.3142961163175 419.7297071853614Q871.704026562224 428.90037592561504 871.704026562224 445.2468851605082L871.704026562224 445.2468851605082L871.704026562224 501.9055485255194L883.4790544009184 501.9055485255194L883.4790544009184 515.869346244818ZM828.621277646531 504.7038492589503L828.621277646531 504.7038492589503Q834.6057623833732 504.7038492589503 839.5928329974084 503.29084591830696Q844.5799036114437 501.9055485255194 848.1539708848355 499.3011894270787Q851.7557441060833 496.72453627649395 853.7505723516973 493.3167046902365Q855.7454005973115 489.9365790518349 855.7454005973115 485.9469225606067L855.7454005973115 485.9469225606067L855.7454005973115 468.990882472887L834.6057623833732 468.990882472887Q820.835906299065 468.990882472887 814.5466561358095 472.98053896411517Q808.2574059725539 476.97019545534334 808.2574059725539 484.56162516781916L808.2574059725539 484.56162516781916L808.2574059725539 488.7452232940376Q808.2574059725539 496.3089470586576 813.7431836479926 500.5202511327318Q819.2289613234313 504.7038492589503 828.621277646531 504.7038492589503ZM922.1565576075469 515.869346244818L906.1979316426342 515.869346244818L906.1979316426342 412.9417499607024L922.1565576075469 412.9417499607024L922.1565576075469 429.70384841343184L922.9600300953638 429.70384841343184Q926.7557449516017 420.9210629431587 933.626820019828 415.74005069413323Q940.52560103591 410.53133249725204 952.0789812917582 410.53133249725204L952.0789812917582 410.53133249725204Q968.0376072566709 410.53133249725204 977.3190997883476 420.8102391517357Q986.6005923200242 431.0891458062194 986.6005923200242 449.8460725045629L986.6005923200242 449.8460725045629L986.6005923200242 515.869346244818L970.6419663551115 515.869346244818L970.6419663551115 452.6443732379938Q970.6419663551115 424.91071943438686 947.313558260569 424.91071943438686L947.313558260569 424.91071943438686Q942.5204292815241 424.91071943438686 938.0320657288925 426.1020751921842Q933.5437021762607 427.2934309499815 929.941928955013 429.70384841343184Q926.3678616816211 432.08655992902646 924.262209644584 435.7714509938413Q922.1565576075469 439.4563420586562 922.1565576075469 444.44341267269147L922.1565576075469 444.44341267269147L922.1565576075469 515.869346244818ZM1057.804878309305 518.2520577604125L1057.804878309305 518.2520577604125Q1047.0549705412732 518.2520577604125 1038.4661267059905 514.4840488520304Q1029.8772828707074 510.6883339957925 1024.0036219252884 503.7064351361432Q1018.129960979869 496.72453627649395 1015.026894820025 486.7503950484235Q1011.9238286601808 476.7762538203531 1011.9238286601808 464.3916951288323L1011.9238286601808 464.3916951288323Q1011.9238286601808 452.0348423851673 1015.026894820025 442.06070115709684Q1018.129960979869 432.08655992902646 1024.0036219252884 425.10466106937713Q1029.8772828707074 418.12276220972785 1038.4661267059905 414.32704735348995Q1047.0549705412732 410.53133249725204 1057.804878309305 410.53133249725204L1057.804878309305 410.53133249725204Q1073.1816793692465 410.53133249725204 1082.463171900923 417.2361718783438Q1091.7169584847443 423.91330531157985 1096.3161458287987 434.69091902746703L1096.3161458287987 434.69091902746703L1082.9618789623269 441.45117030427036Q1080.1635782288959 433.471857321814 1073.7635042742172 429.0943175606053Q1067.3911362673944 424.7167777993966 1057.804878309305 424.7167777993966L1057.804878309305 424.7167777993966Q1050.629037814665 424.7167777993966 1045.2540839306494 426.9886655235682Q1039.851424098778 429.2882591955956 1036.277356825386 433.38873947824675Q1032.6755836041384 437.4615138130422 1030.8746969935146 443.1689390713269Q1029.1015163307466 448.8486583817559 1029.1015163307466 455.6366156064149L1029.1015163307466 455.6366156064149L1029.1015163307466 473.17448059910544Q1029.1015163307466 486.7503950484235 1036.3604746689534 495.4223567272736Q1043.6471389550156 504.09431840612376 1057.804878309305 504.09431840612376L1057.804878309305 504.09431840612376Q1077.1713358604748 504.09431840612376 1085.7324737479016 486.140864195597L1085.7324737479016 486.140864195597L1097.3135599516058 493.92623554306306Q1092.3264893375708 505.0917325289308 1082.463171900923 511.6857481185996Q1072.57214851642 518.2520577604125 1057.804878309305 518.2520577604125ZM1157.546290590009 518.2520577604125L1157.546290590009 518.2520577604125Q1147.1842660919579 518.2520577604125 1138.5954222566752 514.4840488520304Q1130.0342843692479 510.6883339957925 1123.9389758409825 503.5956113447202Q1117.8713732605734 496.5305946415036 1114.4635416743158 486.6395712570005Q1111.083416035914 476.7762538203531 1111.083416035914 464.3916951288323L1111.083416035914 464.3916951288323Q1111.083416035914 452.22878402015755 1114.4635416743158 442.2546427920871Q1117.8713732605734 432.2805015640167 1123.9389758409825 425.21548486080013Q1130.0342843692479 418.12276220972785 1138.5954222566752 414.32704735348995Q1147.1842660919579 410.53133249725204 1157.546290590009 410.53133249725204L1157.546290590009 410.53133249725204Q1167.9360210359155 410.53133249725204 1176.4140410797754 414.32704735348995Q1184.8920611236354 418.12276220972785 1191.0704874954677 425.21548486080013Q1197.2489138673004 432.2805015640167 1200.656745453558 442.2546427920871Q1204.0368710919593 452.22878402015755 1204.0368710919593 464.3916951288323L1204.0368710919593 464.3916951288323Q1204.0368710919593 476.7762538203531 1200.656745453558 486.6395712570005Q1197.2489138673004 496.5305946415036 1191.0704874954677 503.5956113447202Q1184.8920611236354 510.6883339957925 1176.4140410797754 514.4840488520304Q1167.9360210359155 518.2520577604125 1157.546290590009 518.2520577604125ZM1157.546290590009 504.09431840612376L1157.546290590009 504.09431840612376Q1170.5126741865006 504.09431840612376 1178.7136347518026 496.1150054236674Q1186.8868893692493 488.13569244121106 1186.8868893692493 471.7891832063179L1186.8868893692493 471.7891832063179L1186.8868893692493 457.0219129992025Q1186.8868893692493 440.6754037643093 1178.7136347518026 432.69609078185294Q1170.5126741865006 424.7167777993966 1157.546290590009 424.7167777993966L1157.546290590009 424.7167777993966Q1144.5799069935174 424.7167777993966 1136.4066523760707 432.69609078185294Q1128.233397758624 440.6754037643093 1128.233397758624 457.0219129992025L1128.233397758624 457.0219129992025L1128.233397758624 471.7891832063179Q1128.233397758624 488.13569244121106 1136.4066523760707 496.1150054236674Q1144.5799069935174 504.09431840612376 1157.546290590009 504.09431840612376ZM1387.561069688455 515.869346244818L1387.561069688455 398.5623630235675L1386.5636555656479 398.5623630235675L1374.7886277269536 421.91847706596576L1341.4860784043408 482.56679692220507L1308.1558231338722 421.91847706596576L1296.4085012430337 398.5623630235675L1295.4110871202265 398.5623630235675L1295.4110871202265 515.869346244818L1279.0368719374778 515.869346244818L1279.0368719374778 376.61925232181255L1301.3955718570692 376.61925232181255L1341.2921367693507 451.64695911518675L1342.2895508921574 451.64695911518675L1382.3800574394295 376.61925232181255L1403.9075789233484 376.61925232181255L1403.9075789233484 515.869346244818L1387.561069688455 515.869346244818ZM1447.4059170568776 388.8098693783431L1447.4059170568776 388.8098693783431Q1442.224904807852 388.8098693783431 1439.9253111358248 386.3163340713255Q1437.6257174637976 383.8227987643079 1437.6257174637976 379.8331422730797L1437.6257174637976 379.8331422730797L1437.6257174637976 377.2287831746391Q1437.6257174637976 373.2391266834109 1439.9253111358248 370.7455913763933Q1442.224904807852 368.2520560693757 1447.4059170568776 368.2520560693757L1447.4059170568776 368.2520560693757Q1452.5869293059031 368.2520560693757 1454.8865229779303 370.7455913763933Q1457.186116649958 373.2391266834109 1457.186116649958 377.2287831746391L1457.186116649958 377.2287831746391L1457.186116649958 379.8331422730797Q1457.186116649958 383.8227987643079 1454.8865229779303 386.3163340713255Q1452.5869293059031 388.8098693783431 1447.4059170568776 388.8098693783431ZM1439.4266040744214 515.869346244818L1439.4266040744214 412.9417499607024L1455.3852300393341 412.9417499607024L1455.3852300393341 515.869346244818L1439.4266040744214 515.869346244818ZM1555.1266423200382 515.869346244818L1555.1266423200382 499.1072477920885L1554.3231698322215 499.1072477920885Q1544.9585594569776 518.2520577604125 1524.20680451302 518.2520577604125L1524.20680451302 518.2520577604125Q1514.6205465549301 518.2520577604125 1506.8628811553199 514.4840488520304Q1499.0775098078539 510.6883339957925 1493.591732132415 503.7064351361432Q1488.1059544569762 496.72453627649395 1485.1968299321225 486.7503950484235Q1482.315411355124 476.7762538203531 1482.315411355124 464.3916951288323L1482.315411355124 464.3916951288323Q1482.315411355124 452.0348423851673 1485.1968299321225 442.06070115709684Q1488.1059544569762 432.08655992902646 1493.591732132415 425.10466106937713Q1499.0775098078539 418.12276220972785 1506.8628811553199 414.32704735348995Q1514.6205465549301 410.53133249725204 1524.20680451302 410.53133249725204L1524.20680451302 410.53133249725204Q1534.984418228907 410.53133249725204 1542.6589657849504 415.2413436327297Q1550.3335133409932 419.9236488203517 1554.3231698322215 429.70384841343184L1554.3231698322215 429.70384841343184L1555.1266423200382 429.70384841343184L1555.1266423200382 368.2520560693757L1571.0852682849509 368.2520560693757L1571.0852682849509 515.869346244818L1555.1266423200382 515.869346244818ZM1528.5843442742284 503.90037677113344L1528.5843442742284 503.90037677113344Q1533.9870041061 503.90037677113344 1538.8632509287122 502.51507937834594Q1543.7672036991803 501.1020760377026 1547.3412709725721 498.4145990956947Q1550.9430441938198 495.7271221536869 1553.020990283001 491.82058350602597Q1555.1266423200382 487.9417508062208 1555.1266423200382 482.9546801921856L1555.1266423200382 482.9546801921856L1555.1266423200382 444.66506025553747Q1555.1266423200382 440.4537561814633 1553.020990283001 436.7688651166484Q1550.9430441938198 433.0839740518335 1547.3412709725721 430.47961495339285Q1543.7672036991803 427.902961802808 1538.8632509287122 426.40684061859747Q1533.9870041061 424.91071943438686 1528.5843442742284 424.91071943438686L1528.5843442742284 424.91071943438686Q1515.036135772766 424.91071943438686 1507.2507644253 433.38873947824675Q1499.465393077834 441.8667595221066 1499.465393077834 455.6366156064149L1499.465393077834 455.6366156064149L1499.465393077834 473.17448059910544Q1499.465393077834 486.9443366834138 1507.2507644253 495.4223567272736Q1515.036135772766 503.90037677113344 1528.5843442742284 503.90037677113344ZM1688.780134776182 515.869346244818L1679.8034076709187 515.869346244818Q1670.826680565655 515.869346244818 1666.9478478658498 511.07621726577304Q1663.0413092181889 506.2830882867281 1662.0438950953821 499.1072477920885L1662.0438950953821 499.1072477920885L1661.046480972575 499.1072477920885Q1657.6663553341732 508.6935057501784 1649.8809839867072 513.4866347292234Q1642.0956126392412 518.2520577604125 1631.317998923354 518.2520577604125L1631.317998923354 518.2520577604125Q1614.9714896884607 518.2520577604125 1605.8839387917742 509.88486150797576Q1596.824093842944 501.5176652555389 1596.824093842944 487.138278318404L1596.824093842944 487.138278318404Q1596.824093842944 472.59265569413463 1607.490883767408 464.80728434666855Q1618.1576736918723 457.0219129992025 1640.7103152464538 457.0219129992025L1640.7103152464538 457.0219129992025L1661.046480972575 457.0219129992025L1661.046480972575 446.8538301361418Q1661.046480972575 435.88227478526437 1655.0619962357327 430.0917316834124Q1649.0775114988905 424.3011885815604 1636.7206587552255 424.3011885815604L1636.7206587552255 424.3011885815604Q1627.3283424321257 424.3011885815604 1621.066798216726 428.48478670777877Q1614.7775480534706 432.69609078185294 1610.5939499272522 439.6779896415022L1610.5939499272522 439.6779896415022L1601.0076919691624 430.70126253623886Q1605.1912900953807 422.30636033594624 1614.3619588356341 416.43269939052703Q1623.5603335237438 410.53133249725204 1637.5241312430421 410.53133249725204L1637.5241312430421 410.53133249725204Q1656.25335199353 410.53133249725204 1666.6430824394365 419.7297071853614Q1677.0051069374877 428.90037592561504 1677.0051069374877 445.2468851605082L1677.0051069374877 445.2468851605082L1677.0051069374877 501.9055485255194L1688.780134776182 501.9055485255194L1688.780134776182 515.869346244818ZM1633.9223580217945 504.7038492589503L1633.9223580217945 504.7038492589503Q1639.9068427586367 504.7038492589503 1644.8939133726722 503.29084591830696Q1649.8809839867072 501.9055485255194 1653.4827572079548 499.3011894270787Q1657.0568244813467 496.72453627649395 1659.051652726961 493.3167046902365Q1661.046480972575 489.9365790518349 1661.046480972575 485.9469225606067L1661.046480972575 485.9469225606067L1661.046480972575 468.990882472887L1639.9068427586367 468.990882472887Q1626.1369866743285 468.990882472887 1619.847736511073 472.98053896411517Q1613.5861922956733 476.97019545534334 1613.5861922956733 484.56162516781916L1613.5861922956733 484.56162516781916L1613.5861922956733 488.7452232940376Q1613.5861922956733 496.3089470586576 1619.0719699711117 500.5202511327318Q1624.5577476465505 504.7038492589503 1633.9223580217945 504.7038492589503ZM1742.4465557727717 518.2520577604125L1742.4465557727717 518.2520577604125Q1728.067168835637 518.2520577604125 1718.3977930339797 512.7662800849739Q1708.7284172323225 507.28050240953513 1701.7465183726736 498.1098336692815L1701.7465183726736 498.1098336692815L1713.1059569935314 488.9391649290278Q1719.0904417303736 496.5305946415036 1726.487929807859 500.60336897629907Q1733.857711937489 504.7038492589503 1743.637911530569 504.7038492589503L1743.637911530569 504.7038492589503Q1753.8059943936296 504.7038492589503 1759.485713704059 500.2986035498858Q1765.1931389623437 495.92106378867715 1765.1931389623437 487.9417508062208L1765.1931389623437 487.9417508062208Q1765.1931389623437 481.95726606937853 1761.2866003146828 477.6628441517371Q1757.4077676148777 473.36842223409565 1747.2396847518166 471.7891832063179L1747.2396847518166 471.7891832063179L1739.0387241865146 470.59782744852055Q1731.8628836918747 469.60041332571353 1725.8783989550325 467.49476128867644Q1719.8939142181903 465.38910925163935 1715.4055506655586 461.89815982181466Q1710.917187112927 458.4072103919901 1708.4236518059092 453.22619814296456Q1705.930116498892 448.0451858939391 1705.930116498892 440.86934539929956L1705.930116498892 440.86934539929956Q1705.930116498892 433.27791568682375 1708.7284172323225 427.59819637639475Q1711.5267179657535 421.91847706596576 1716.4029647883658 418.12276220972785Q1721.306917558834 414.32704735348995 1728.067168835637 412.44304289929886Q1734.8551260602962 410.53133249725204 1742.6404974077623 410.53133249725204L1742.6404974077623 410.53133249725204Q1755.2189977342732 410.53133249725204 1763.6970177781332 414.9365782063164Q1772.1750378219926 419.31411796752514 1778.5474058288155 427.0994893149912L1778.5474058288155 427.0994893149912L1767.9637337479185 436.6857472730811Q1764.5836081095172 431.8926182940362 1757.989592519848 427.9860796463753Q1751.423282878035 424.1072469465701 1741.449141649965 424.1072469465701L1741.449141649965 424.1072469465701Q1731.4750004218945 424.1072469465701 1726.3771060164363 428.4016688642115Q1721.306917558834 432.69609078185294 1721.306917558834 440.06587291148276L1721.306917558834 440.06587291148276Q1721.306917558834 447.65730262395857 1726.3771060164363 451.0374282623602Q1731.4750004218945 454.41755390076185 1741.0335524321285 456.02449887639546L1741.0335524321285 456.02449887639546L1749.0128654145847 457.21585463419274Q1766.1905530851504 459.8202137326333 1773.36639357979 467.1068780186959Q1780.5422340744299 474.3658363569027 1780.5422340744299 486.140864195597L1780.5422340744299 486.140864195597Q1780.5422340744299 501.1020760377026 1770.3741512113693 509.6909198729855Q1760.2060683483082 518.2520577604125 1742.4465557727717 518.2520577604125Z " fill="#8aaae5" transform="matrix(0.4914233272030726,0,0,0.4914233272030726,0,82.17559215693717)"/></g></svg>