<?xml version="1.0" encoding="UTF-8"?> <svg xmlns="http://www.w3.org/2000/svg" id="Layer_1" data-name="Layer 1" width="140.61465" height="43.05802" viewBox="0 0 140.61465 43.05802"><defs><style>.cls-1,.cls-3{fill:#777;}.cls-1{fill-rule:evenodd;}.cls-2{fill:none;stroke:#7d7c7d;stroke-miterlimit:10;stroke-width:2px;}</style></defs><title>logo-google-play</title><path class="cls-1" d="M99.29353,18.26043h4.84469a4.2823,4.2823,0,0,1,4.26976,4.26977h0a4.28218,4.28218,0,0,1-4.26976,4.26963H99.29353v-8.5394Zm2.00273,2.00287v4.5338h2.842a2.2669,2.2669,0,1,0,0-4.5338Z" transform="translate(-0.69267 -0.72099)"></path><polygon class="cls-1" points="126.011 35.305 131.81 22.109 129.623 22.109 123.824 35.305 126.011 35.305"></polygon><path class="cls-2" d="M6.61085,1H134.0038a5.61085,5.61085,0,0,1,5.61085,5.61085V36.44724a5.61078,5.61078,0,0,1-5.61078,5.61078H6.61078A5.61078,5.61078,0,0,1,1,36.44724V6.61085A5.61085,5.61085,0,0,1,6.61085,1Z"></path><path class="cls-1" d="M51.76435,24.23028H45.27472V26.156h4.60257c-.22739,2.70046-2.47411,3.85211-4.59483,3.85211a5.14366,5.14366,0,0,1,.00593-10.28663,4.995,4.995,0,0,1,3.46983,1.39182l1.34841-1.39635a6.85538,6.85538,0,0,0-4.88711-1.92668,7.075,7.075,0,1,0,.10243,14.148,6.22886,6.22886,0,0,0,6.55984-6.4313,5.77382,5.77382,0,0,0-.1175-1.27725Z" transform="translate(-0.69267 -0.72099)"></path><path class="cls-1" d="M57.30739,24.62169a2.61444,2.61444,0,0,1,2.55044,2.76465,2.58234,2.58234,0,1,1-2.55044-2.76465Zm-.02638-1.786a4.54721,4.54721,0,1,0,4.56268,4.5628,4.493,4.493,0,0,0-4.56268-4.5628Z" transform="translate(-0.69267 -0.72099)"></path><path class="cls-1" d="M67.35734,24.62169a2.61453,2.61453,0,0,1,2.55051,2.76465,2.58233,2.58233,0,1,1-2.55051-2.76465Zm-.02651-1.786a4.54721,4.54721,0,1,0,4.5628,4.5628,4.49293,4.49293,0,0,0-4.5628-4.5628Z" transform="translate(-0.69267 -0.72099)"></path><path class="cls-1" d="M77.35163,24.62295a2.57161,2.57161,0,0,1,2.4289,2.77064,2.54117,2.54117,0,0,1-2.45542,2.755,2.5836,2.5836,0,0,1-2.51542-2.73813,2.62056,2.62056,0,0,1,2.54194-2.78753Zm-.17694-1.78253a4.55262,4.55262,0,0,0-.04214,9.09562,3.0042,3.0042,0,0,0,2.49393-1.10491v.89657a2.28169,2.28169,0,0,1-2.39039,2.5083,2.5215,2.5215,0,0,1-2.32773-1.61885l-1.74765.73066a4.37483,4.37483,0,0,0,4.0899,2.678c2.4303,0,4.28246-1.53066,4.28246-4.741v-8.171H79.62661v.77028a3.21634,3.21634,0,0,0-2.45193-1.04351Z" transform="translate(-0.69267 -0.72099)"></path><path class="cls-1" d="M90.49026,24.57844a1.81259,1.81259,0,0,1,1.68262.97123L88.101,27.25154a2.52579,2.52579,0,0,1,2.38913-2.6731Zm-.07955-1.74891a4.29987,4.29987,0,0,0-4.24144,4.54118,4.39739,4.39739,0,0,0,4.46289,4.5628,4.61327,4.61327,0,0,0,3.80941-1.99562L92.86976,28.892a2.5451,2.5451,0,0,1-2.228,1.25184,2.33945,2.33945,0,0,1-2.23033-1.37813l6.09738-2.53008-.31662-.74139a4.11688,4.11688,0,0,0-3.78136-2.66446Z" transform="translate(-0.69267 -0.72099)"></path><rect class="cls-3" x="82.36937" y="17.53952" width="2.00273" height="13.403"></rect><rect class="cls-3" x="109.22155" y="17.53952" width="2.00273" height="13.403"></rect><rect class="cls-3" x="98.60085" y="17.53952" width="2.00273" height="13.403"></rect><polygon class="cls-1" points="126.658 32.284 122.187 22.109 124.374 22.109 127.459 29.127 126.658 29.127 126.658 32.284"></polygon><path class="cls-1" d="M120.11378,31.6635h2.00273V26.84309c.31341-4.97168-5.98979-6.14106-8.37473-2.557l1.61159,1.08146c1.16616-2.03887,4.49387-1.56972,4.71268.61525a8.87811,8.87811,0,0,0-3.06774-.35709,3.23665,3.23665,0,0,0-3.06954,2.73716,3.32029,3.32029,0,0,0,.6846,2.58421,3.78581,3.78581,0,0,0,3.76.80392,3.44648,3.44648,0,0,0,1.74039-1.16924V31.6635Zm0-3.8743a3.01456,3.01456,0,0,1-2.21653,2.21484c-2.31587.6313-2.8919-3.1315.54967-2.61407A8.58927,8.58927,0,0,1,120.11378,27.7892Z" transform="translate(-0.69267 -0.72099)"></path><path class="cls-1" d="M44.71842,10.10555H41.765V10.982h2.09463a1.93868,1.93868,0,0,1-2.09107,1.753,2.3408,2.3408,0,0,1,.00265-4.68129,2.27327,2.27327,0,0,1,1.57915.6334l.61364-.63549a3.12,3.12,0,0,0-2.22412-.87676,3.21972,3.21972,0,1,0,.0466,6.43856,2.83469,2.83469,0,0,0,2.98534-2.92679,2.626,2.626,0,0,0-.05351-.58127Z" transform="translate(-0.69267 -0.72099)"></path><rect class="cls-3" x="56.09687" y="6.66785" width="0.91143" height="6.09953"></rect><path class="cls-1" d="M51.6853,13.48838h.91143V8.3002h1.49612V7.38884H50.18917V8.3002H51.6853Z" transform="translate(-0.69267 -0.72099)"></path><path class="cls-1" d="M45.73276,13.48838H49.2282v-.91143h-2.584V10.89432h2.273V9.98289h-2.273V8.3002h2.584V7.38884H45.73276Z" transform="translate(-0.69267 -0.72099)"></path><path class="cls-1" d="M59.939,13.48838h.91136V8.3002h1.49612V7.38884h-3.9036V8.3002H59.939Z" transform="translate(-0.69267 -0.72099)"></path><path class="cls-1" d="M67.93589,12.73463a2.341,2.341,0,1,1,2.28365-2.33282,2.30261,2.30261,0,0,1-2.28365,2.33282Zm0-5.55978a3.21907,3.21907,0,1,0,3.24426,3.21134A3.27248,3.27248,0,0,0,67.93589,7.17485Z" transform="translate(-0.69267 -0.72099)"></path><polygon class="cls-1" points="71.398 12.767 72.309 12.767 72.309 8.324 75.237 12.767 76.147 12.767 76.147 6.668 75.235 6.668 75.235 11.108 72.309 6.668 71.398 6.668 71.398 12.767"></polygon><path class="cls-1" d="M14.50735,35.441a2.13441,2.13441,0,0,0,.27308-.12642l12.525-6.8558-2.96949-2.965L14.50735,35.441Zm13.35233-7.2853-3.09774-3.09313,3.09461-3.13186,4.2616,2.3246c1.04994.57254.5129,1.28868,0,1.56945l-4.25847,2.33094Zm-.55684-6.527L14.78044,14.79675a1.25939,1.25939,0,0,0-.43705-.13738L24.333,24.63425l2.96985-3.00564ZM13.6089,14.78279,23.907,25.06544,13.65844,35.43775a1.29486,1.29486,0,0,1-.46217-1.1331c-.00516-1.0191-.08667-17.19579-.0928-18.40963A1.18812,1.18812,0,0,1,13.6089,14.78279Z" transform="translate(-0.69267 -0.72099)"></path></svg> 