<?xml version="1.0" encoding="UTF-8"?> <svg xmlns="http://www.w3.org/2000/svg" id="Layer_1" data-name="Layer 1" width="123.114" height="43" viewBox="0 0 123.114 43"><defs><style>.cls-1{fill:none;stroke:#7d7c7d;stroke-miterlimit:10;stroke-width:2px;}.cls-2{fill:#777;}</style></defs><title>logo-apple-store</title><g id="Page-1"><g id="Artboard-1"><g id="App-Store"><path id="background" class="cls-1" d="M6.863,1.75H118.137a4.9239,4.9239,0,0,1,4.92,4.92V37.83a4.9239,4.9239,0,0,1-4.92,4.92H6.863a4.9239,4.9239,0,0,1-4.92-4.92V6.67A4.9239,4.9239,0,0,1,6.863,1.75Z" transform="translate(-0.943 -0.75)"></path><g id="icon"><path id="Fill-2" class="cls-2" d="M28.4536,21.3152a5.2873,5.2873,0,0,1,2.5092-4.428A5.43855,5.43855,0,0,0,26.707,14.583c-1.7876-.1886-3.526,1.0742-4.4362,1.0742-.9266,0-2.337-1.0496-3.8458-1.025a5.65471,5.65471,0,0,0-4.7642,2.911c-2.0582,3.567-.5248,8.815,1.4514,11.7014.9922,1.4104,2.1402,2.993,3.6572,2.9356,1.476-.0574,2.0336-.943,3.813-.943,1.7712,0,2.2878.943,3.8294.9102,1.5908-.0246,2.583-1.4186,3.5424-2.8454a11.56671,11.56671,0,0,0,1.6154-3.2964,5.11419,5.11419,0,0,1-3.116-4.6904" transform="translate(-0.943 -0.75)"></path><path id="Fill-3" class="cls-2" d="M25.5426,12.6888a5.20234,5.20234,0,0,0,1.189-3.7228,5.275,5.275,0,0,0-3.4194,1.7712,4.98855,4.98855,0,0,0-1.2218,3.5834,4.37009,4.37009,0,0,0,3.4522-1.6318" transform="translate(-0.943 -0.75)"></path></g><path id="Fill-4" class="cls-2" d="M49.872,31.9752H47.8056L46.674,28.4164H42.738l-1.0742,3.5588h-2.009l3.895-12.1114h2.4108L49.872,31.9752ZM46.3378,26.924l-1.025-3.157c-.1066-.328-.3116-1.0824-.6068-2.2796h-.041c-.123.5166-.3116,1.2792-.574,2.2796l-1.0086,3.157Z" transform="translate(-0.943 -0.75)"></path><path id="Fill-5" class="cls-2" d="M59.8842,27.5062a4.91862,4.91862,0,0,1-1.2136,3.5178,3.53525,3.53525,0,0,1-2.6896,1.148,2.6935,2.6935,0,0,1-2.4928-1.2382v4.5838H51.5448V26.1122c0-.9348-.0246-1.886-.0738-2.87h1.7056l.1066,1.3858h.0328a3.44371,3.44371,0,0,1,5.5186-.3444,4.75033,4.75033,0,0,1,1.0496,3.2226Zm-1.9762.0656a3.56473,3.56473,0,0,0-.574-2.0992,1.98751,1.98751,0,0,0-1.6892-.861,2.0608,2.0608,0,0,0-1.3038.4756,2.196,2.196,0,0,0-.7626,1.2464,2.65507,2.65507,0,0,0-.0902.5904v1.4596a2.34772,2.34772,0,0,0,.5822,1.6072,1.93764,1.93764,0,0,0,1.517.656,2.00186,2.00186,0,0,0,1.7056-.8446,3.70426,3.70426,0,0,0,.615-2.2304Z" transform="translate(-0.943 -0.75)"></path><path id="Fill-6" class="cls-2" d="M69.921,27.5062a4.91863,4.91863,0,0,1-1.2136,3.5178,3.53525,3.53525,0,0,1-2.6896,1.148,2.6935,2.6935,0,0,1-2.4928-1.2382v4.5838H61.5816V26.1122c0-.9348-.0246-1.886-.0738-2.87h1.7056L63.32,24.628h.0328a3.44371,3.44371,0,0,1,5.5186-.3444,4.75033,4.75033,0,0,1,1.0496,3.2226Zm-1.9762.0656a3.56472,3.56472,0,0,0-.574-2.0992,1.98751,1.98751,0,0,0-1.6892-.861,2.0608,2.0608,0,0,0-1.3038.4756,2.2402,2.2402,0,0,0-.7626,1.2464,2.655,2.655,0,0,0-.0902.5904v1.4596a2.34772,2.34772,0,0,0,.5822,1.6072,1.93764,1.93764,0,0,0,1.517.656,1.99177,1.99177,0,0,0,1.7056-.8446,3.64893,3.64893,0,0,0,.615-2.2304Z" transform="translate(-0.943 -0.75)"></path><path id="Fill-7" class="cls-2" d="M81.155,28.5804a3.24288,3.24288,0,0,1-1.0742,2.5174,4.76786,4.76786,0,0,1-3.2964,1.0578,5.76824,5.76824,0,0,1-3.1324-.7544l.451-1.6154a5.44662,5.44662,0,0,0,2.8044.7544,2.641,2.641,0,0,0,1.7056-.492,1.607,1.607,0,0,0,.615-1.3202,1.70769,1.70769,0,0,0-.5002-1.2382,4.68218,4.68218,0,0,0-1.6728-.9348c-2.1402-.7954-3.198-1.9516-3.198-3.4686a3.07628,3.07628,0,0,1,1.1234-2.4436,4.456,4.456,0,0,1,2.9766-.9512,5.85138,5.85138,0,0,1,2.747.574L80.212,21.84a4.83975,4.83975,0,0,0-2.3288-.5576,2.416,2.416,0,0,0-1.6072.5002,1.4552,1.4552,0,0,0-.4838,1.0988,1.47223,1.47223,0,0,0,.5576,1.1808,6.25615,6.25615,0,0,0,1.763.9348,5.911,5.911,0,0,1,2.296,1.476,3.06818,3.06818,0,0,1,.7462,2.1074" transform="translate(-0.943 -0.75)"></path><path id="Fill-8" class="cls-2" d="M87.5838,24.7018H85.4436v4.2394c0,1.0742.3772,1.6154,1.1316,1.6154a3.59933,3.59933,0,0,0,.861-.0902l.0574,1.476a4.50005,4.50005,0,0,1-1.5088.2132,2.3222,2.3222,0,0,1-1.7958-.7052,3.423,3.423,0,0,1-.6478-2.3534V24.6936h-1.271V23.2422h1.271v-1.599l1.9024-.574v2.173h2.1402v1.4596" transform="translate(-0.943 -0.75)"></path><path id="Fill-9" class="cls-2" d="M97.2106,27.539a4.79664,4.79664,0,0,1-1.148,3.3046,4.1097,4.1097,0,0,1-3.198,1.3284,3.93536,3.93536,0,0,1-3.0668-1.271,4.6164,4.6164,0,0,1-1.1398-3.2144,4.76278,4.76278,0,0,1,1.1726-3.321A4.09232,4.09232,0,0,1,93.004,23.07a3.99047,3.99047,0,0,1,3.0914,1.2792,4.55808,4.55808,0,0,1,1.1152,3.1898Zm-2.009.041a3.91361,3.91361,0,0,0-.5166-2.0582,2.01294,2.01294,0,0,0-3.526,0,4.44009,4.44009,0,0,0,0,4.1574,1.99171,1.99171,0,0,0,3.5096-.0164A3.97347,3.97347,0,0,0,95.2016,27.58Z" transform="translate(-0.943 -0.75)"></path><path id="Fill-10" class="cls-2" d="M103.5246,24.9478a3.59505,3.59505,0,0,0-.615-.0492,1.83087,1.83087,0,0,0-1.5826.7708,2.9253,2.9253,0,0,0-.4838,1.722v4.5838H98.8998v-5.986c0-1.0086-.0164-1.927-.0574-2.747h1.6892l.0738,1.6728h.0574a2.97694,2.97694,0,0,1,.9676-1.3858,2.36045,2.36045,0,0,1,1.4022-.4674,4.08409,4.08409,0,0,1,.4838.0328l.0082,1.8532" transform="translate(-0.943 -0.75)"></path><path id="Fill-11" class="cls-2" d="M112.2002,27.1946a4.43562,4.43562,0,0,1-.0738.8774h-5.822a2.53129,2.53129,0,0,0,.8446,1.9762,2.90737,2.90737,0,0,0,1.9024.6068,6.53276,6.53276,0,0,0,2.3534-.41l.3034,1.3448a7.28652,7.28652,0,0,1-2.9274.5412,4.24144,4.24144,0,0,1-3.1898-1.1972,4.42,4.42,0,0,1-1.1562-3.2062,5.01022,5.01022,0,0,1,1.0824-3.2882,3.71519,3.71519,0,0,1,3.0504-1.4022,3.24052,3.24052,0,0,1,2.8536,1.4022,4.743,4.743,0,0,1,.779,2.7552Zm-1.8532-.5002a2.61435,2.61435,0,0,0-.3772-1.4924,1.693,1.693,0,0,0-1.5416-.8118,1.843,1.843,0,0,0-1.5416.7872,2.91627,2.91627,0,0,0-.574,1.5088l4.0344.0082Z" transform="translate(-0.943 -0.75)"></path><g id="Available-on-the"><path id="Fill-12" class="cls-2" d="M45.403,15.5342H44.3862l-.5576-1.7466H41.8934l-.533,1.7466h-.984L42.287,9.581h1.1808Zm-1.7466-2.4846-.5002-1.558c-.0492-.1558-.1476-.533-.3034-1.1234h-.0164c-.0656.2542-.1476.6232-.287,1.1234l-.492,1.558Z" transform="translate(-0.943 -0.75)"></path><path id="Fill-13" class="cls-2" d="M50.1918,11.2374l-1.6236,4.2968h-.9266l-1.5744-4.2968h1.025l.7298,2.2714c.123.3772.2296.738.3116,1.0824h.0246c.0738-.3116.1804-.6724.3116-1.0824l.7216-2.2714h1.0004" transform="translate(-0.943 -0.75)"></path><path id="Fill-14" class="cls-2" d="M53.6522,15.5342l-.0738-.492h-.0246a1.47584,1.47584,0,0,1-1.2546.5904,1.24562,1.24562,0,0,1-1.312-1.2628c0-1.0578.9184-1.6072,2.5092-1.6072v-.082c0-.5658-.3034-.8446-.8938-.8446a2.00273,2.00273,0,0,0-1.1234.3198l-.1968-.6232a2.75672,2.75672,0,0,1,1.476-.369c1.1234,0,1.6892.5904,1.6892,1.7794v1.5826a5.71554,5.71554,0,0,0,.0656,1.025l-.861-.0164ZM53.521,13.394c-1.0578,0-1.5908.2542-1.5908.8692a.60808.60808,0,0,0,.656.6724.91229.91229,0,0,0,.9348-.8774Z" transform="translate(-0.943 -0.75)"></path><path id="Fill-15" class="cls-2" d="M56.5714,10.5322a.57031.57031,0,1,1,.5986-.574.55863.55863,0,0,1-.5986.574Zm-.4592.7052h.9512V15.526h-.9512Z" transform="translate(-0.943 -0.75)"></path><path id="Fill-16" class="cls-2" d="M58.7608,9.2694h.9512V15.526h-.9512Z" transform="translate(-0.943 -0.75)"></path><path id="Fill-17" class="cls-2" d="M63.7628,15.5342l-.0738-.492h-.0246a1.47584,1.47584,0,0,1-1.2546.5904,1.24562,1.24562,0,0,1-1.312-1.2628c0-1.0578.9184-1.6072,2.5092-1.6072v-.082c0-.5658-.3034-.8446-.8938-.8446a2.00273,2.00273,0,0,0-1.1234.3198l-.1968-.6314a2.75672,2.75672,0,0,1,1.476-.369c1.1234,0,1.6892.5904,1.6892,1.7794v1.5826a6.779,6.779,0,0,0,.0574,1.025h-.8528v-.0082Zm-.1312-2.1402c-1.0578,0-1.5908.2542-1.5908.8692a.60808.60808,0,0,0,.656.6724.91229.91229,0,0,0,.9348-.8774Z" transform="translate(-0.943 -0.75)"></path><path id="Fill-18" class="cls-2" d="M68.4286,15.6326a1.46093,1.46093,0,0,1-1.353-.7626h-.0164l-.0574.6642H66.19c.0246-.3444.0328-.7298.0328-1.1562V9.2694h.9594v2.5994h.0164a1.475,1.475,0,0,1,1.3694-.7134c1.0332,0,1.7548.8856,1.7548,2.173A2.06656,2.06656,0,0,1,68.4286,15.6326Zm-.1968-3.731a1.095,1.095,0,0,0-1.0496,1.1398v.7544A1.04867,1.04867,0,0,0,68.2154,14.87c.7134,0,1.1398-.5822,1.1398-1.5088C69.3552,12.492,68.9124,11.9016,68.2318,11.9016Z" transform="translate(-0.943 -0.75)"></path><path id="Fill-19" class="cls-2" d="M71.7332,9.2694h.9512V15.526h-.9512Z" transform="translate(-0.943 -0.75)"></path><path id="Fill-20" class="cls-2" d="M77.875,13.6154H75.0132a1.23194,1.23194,0,0,0,1.353,1.271,3.22544,3.22544,0,0,0,1.1562-.205l.1476.6642a3.47767,3.47767,0,0,1-1.435.2624,1.99246,1.99246,0,0,1-2.1402-2.1648,2.09686,2.09686,0,0,1,2.0336-2.3042,1.80782,1.80782,0,0,1,1.7876,2.0418,1.66241,1.66241,0,0,1-.041.4346Zm-.8692-.6806c0-.6642-.3362-1.1316-.943-1.1316a1.13107,1.13107,0,0,0-1.0414,1.1316Z" transform="translate(-0.943 -0.75)"></path><path id="Fill-21" class="cls-2" d="M83.656,15.6326a2.04068,2.04068,0,0,1-2.0664-2.2058,2.08952,2.08952,0,0,1,2.1402-2.2714,2.02548,2.02548,0,0,1,2.0664,2.1976A2.1053,2.1053,0,0,1,83.656,15.6326Zm.041-3.7802c-.6888,0-1.1316.6478-1.1316,1.5416,0,.8856.451,1.5252,1.1234,1.5252s1.1234-.6888,1.1234-1.5498c-.0082-.8692-.4428-1.517-1.1152-1.517Z" transform="translate(-0.943 -0.75)"></path><path id="Fill-22" class="cls-2" d="M90.9212,15.5342H89.97V13.066c0-.7626-.2952-1.1398-.8692-1.1398a.98645.98645,0,0,0-.9512,1.0496V15.526h-.9512V12.4674c0-.3772-.0082-.7872-.0328-1.23h.8364l.041.6642h.0246a1.54394,1.54394,0,0,1,1.3612-.7544c.902,0,1.4924.6888,1.4924,1.8122v2.5748" transform="translate(-0.943 -0.75)"></path><path id="Fill-23" class="cls-2" d="M97.1614,11.959H96.1118v2.0828c0,.533.1886.7954.5576.7954a2.0866,2.0866,0,0,0,.4264-.041l.0246.7216a2.06672,2.06672,0,0,1-.738.1066c-.7544,0-1.1972-.4182-1.1972-1.5006V11.959H94.562v-.7134h.6232v-.7872l.9348-.287v1.066h1.0496v.7216" transform="translate(-0.943 -0.75)"></path><path id="Fill-24" class="cls-2" d="M102.2126,15.5342h-.9512V13.0824c0-.7708-.2952-1.1562-.8692-1.1562a.93462.93462,0,0,0-.9512,1.0168v2.583h-.9512V9.2694H99.441v2.5748h.0164a1.44249,1.44249,0,0,1,1.2874-.697c.9102,0,1.4678.7052,1.4678,1.8286v2.5584" transform="translate(-0.943 -0.75)"></path><path id="Fill-25" class="cls-2" d="M107.0834,13.6154h-2.8618a1.23194,1.23194,0,0,0,1.353,1.271,3.2254,3.2254,0,0,0,1.1562-.205l.1476.6642a3.47764,3.47764,0,0,1-1.435.2624,1.99246,1.99246,0,0,1-2.1402-2.1648,2.09686,2.09686,0,0,1,2.0336-2.3042,1.80782,1.80782,0,0,1,1.7876,2.0418A1.6623,1.6623,0,0,1,107.0834,13.6154Zm-.8692-.6806c0-.6642-.3362-1.1316-.943-1.1316a1.12516,1.12516,0,0,0-1.0414,1.1316Z" transform="translate(-0.943 -0.75)"></path></g></g></g></g></svg> 